<svg id="Layer_1" data-name="Layer 1" xmlns="http://www.w3.org/2000/svg" viewBox="0 0 449.77 450.08">
  
  <style type="text/css">
    path{fill:#70b42b;}
  </style>
  
  <path d="M232,338.36c.28-61.09,49-108.72,110.8-108.39,58.55.31,107.27,49.91,107,108.95-.27,60.61-49.38,109-110.31,108.7C280,447.33,231.68,398.26,232,338.36ZM353.17,352.2c8.63,0,16.43,0,24.24,0,6.6,0,7.72-1.79,4.54-7.33q-18.55-32.25-37.21-64.43c-3.2-5.52-5.44-5.47-8.71.17q-18.54,32-37,64c-3.41,5.91-2.37,7.58,4.57,7.6,7.95,0,15.9,0,24.26,0,0,2.47,0,4.27,0,6.07q0,14.75,0,29.49c0,5.56,2.49,9.65,7.49,11.95,8.66,4,17.68-2.27,17.78-12.33C353.25,375.9,353.17,364.42,353.17,352.2Z"/><path d="M336.72,202.08l-24.65,2.58c0-6.81,0-13.27,0-19.73,0-21.66-.1-43.32.12-65,0-4.82-1.07-6.68-6.36-6.6-20.66.32-41.33-.11-62,.24-9.61.16-18.18-4.43-17.85-17.51.54-21.31.12-42.65.14-64,0-2.13.22-4.25.37-6.8-1.93-.08-3.72-.23-5.51-.23H41c-.83,0-1.67,0-2.5,0-9.22.32-13.65,4.84-13.65,14.11q0,79.48,0,159,0,105,0,210c0,12.82,3.79,16.55,16.75,16.55q92.23,0,184.46-.08c4.31,0,7.27,1,10.12,4.57,5.78,7.28,12.29,14,18.49,20.92l1.28-.78c-1.38.1-2.77.28-4.15.28q-107.23,0-214.45,0C16.14,449.55.08,433.51.06,412.2Q0,244,0,75.78,0,57.53,0,39.29C0,15.85,15.72,0,39.08,0q93,0,186,0C237.66,0,248,4.46,256.44,13.77q35.14,38.65,70.44,77.15a37.05,37.05,0,0,1,10.06,25.88q-.06,41,0,82C336.93,199.77,336.81,200.76,336.72,202.08Z"/><path d="M169.55,208.14q42.22,0,84.44,0c7.39,0,11.79,3,13.42,8.82,1,3.51.18,6.12-2.83,8.73-5.36,4.67-11.16,6-18.2,6-53.63-.25-107.26-.13-160.89-.14a33.88,33.88,0,0,1-5-.17,11.59,11.59,0,0,1-10.29-11.6c0-5.73,3.95-10.31,9.91-11.37a31.69,31.69,0,0,1,5.47-.29Q127.58,208.13,169.55,208.14Z"/><path d="M218.71,276.14c-2.84,7.09-5.36,13.91-8.38,20.5-.54,1.18-3.16,2-4.82,2-23.13.13-46.27.1-69.41.1-18,0-36,0-53.93,0-7,0-11.92-4.82-12-11.33S75,275.8,81.93,275.79q67.41-.09,134.82,0A15.2,15.2,0,0,1,218.71,276.14Z"/><path d="M202.59,342.94l2.34,22.76c-2.22.13-4.16.34-6.09.34q-56.46,0-112.91,0c-1.17,0-2.33,0-3.5,0-7.56-.33-12.27-4.82-12.21-11.62S75.25,343,82.66,343c16.65-.07,33.31,0,50,0h70Z"/><path d="M125.68,141c15,0,30,0,44.92,0,5.5,0,9.5,2.82,11.25,7.49s.9,9.17-2.87,12.24a14.75,14.75,0,0,1-8.53,3.21c-29.62.23-59.23.2-88.85.09-7.84,0-12.56-4.8-12.44-11.84.12-6.86,5.14-11.2,13.08-11.22Q104,140.93,125.68,141Z"/></svg>