<svg id="Layer_1" data-name="Layer 1" xmlns="http://www.w3.org/2000/svg" viewBox="0 0 403.48 450.08">
  
  <style type="text/css">
    path{fill:#70b42b;}
  </style>
  
  <path d="M218.34,424.59q-89.07.17-178.14.08c-12.51,0-16.17-3.72-16.17-16.55q0-105,0-210,0-79.48,0-159c0-9.27,4.28-13.8,13.19-14.11.8,0,1.61,0,2.41,0H213.42c1.73,0,3.46.15,5.32.23-.14,2.55-.35,4.67-.36,6.8,0,21.33.39,42.67-.13,64-.32,13.08,8,17.68,17.24,17.51,19.95-.35,39.91.08,59.86-.24,5.11-.08,6.19,1.77,6.15,6.6-.21,21.66-.1,43.32-.11,65,0,6.46,0,12.92,0,19.73l23.8-2.58c.08-1.31.2-2.3.2-3.29q0-41,0-82a37.79,37.79,0,0,0-9.72-25.88q-34-38.58-68-77.15C239.48,4.46,229.51,0,217.34,0Q127.54.13,37.74,0C15.18,0,0,15.85,0,39.29Q0,57.53,0,75.78,0,244,.06,412.2c0,21.31,15.52,37.35,36,37.37q103.55.09,207.1,0c.74,0,1.49-.06,2.23-.12-5.83-6.72-11.91-13.23-17.32-20.3C225.36,425.56,222.5,424.58,218.34,424.59Z"/><path d="M246,450.08l1.23-.78-1.78.16Z"/><path d="M253,225.72c3-2.62,3.81-5.22,2.83-8.73-1.63-5.85-6-8.81-13.42-8.82-28.15,0-140.07,0-141.86.29-6,1.05-9.89,5.64-9.91,11.37A11.59,11.59,0,0,0,101,231.41c1.63.24,80.25.06,133.88.31C241.87,231.75,247.67,230.38,253,225.72Z"/><path d="M198.78,296.64c3-6.59,5.55-13.41,8.38-20.5a15.24,15.24,0,0,0-2-.32c-44.94,0-57.88-.08-102.82,0-7,0-11.8,5-11.74,11.56s5,11.3,12,11.33c18,.07,68.2.07,91.33-.06C195.62,298.61,198.24,297.82,198.78,296.64Z"/><path d="M185.52,342.94c-21.48,0-65.76,0-82.41,0-7.41,0-12.37,4.7-12.44,11.42S95.32,365.7,102.88,366c1.16.05,2.33,0,3.5,0,37.64,0,43.27,0,80.91,0,1.94,0,3.87-.21,6.09-.34L191,342.94Z"/><path d="M102.06,164c29.62.11,27.23.14,56.85-.09a14.75,14.75,0,0,0,8.53-3.21c3.77-3.07,4.63-7.52,2.87-12.24S164.56,141,159.05,141l-56.35,0c-7.94,0-13,4.36-13.08,11.22C89.5,159.23,94.22,164,102.06,164Z"/><path d="M340.13,374.91a69.05,69.05,0,0,0,16.61-44.81,71,71,0,0,0-16.64-46,69.86,69.86,0,0,0-49.19-24.85c-1.43-.09-2.88-.15-4.33-.15a70.35,70.35,0,0,0-70.41,65.84c-.1,1.52-.17,3-.17,4.59a70.28,70.28,0,0,0,69.87,70.28,71,71,0,0,0,54.26-24.86Zm-27.5-7a46.27,46.27,0,0,1-26.18,8.1,46.85,46.85,0,0,1-45.81-37.39,45.23,45.23,0,0,1-.88-8.81,48.23,48.23,0,0,1,.25-4.9,46.78,46.78,0,0,1,46.68-42.08A45.4,45.4,0,0,1,312.63,291a46.49,46.49,0,0,1,0,76.91Z"/><path d="M397,429.76l-33-33L351.5,384.23c-2.31-2.31-4.52-4.73-6.52-6.82l-4.85,4.34-11.8,10.57,11.83,11.77L343.1,407l4.65,4.65c11.58,11.58,22.16,22.17,33.75,33.75a10.77,10.77,0,0,0,11.34,3C401,446,403.21,436,397,429.76Z"/><path d="M72.93,152.6a11.57,11.57,0,0,0-23.13-.22A11.38,11.38,0,0,0,61.4,164.1,11.54,11.54,0,0,0,72.93,152.6Z"/><path d="M61.4,231.5A11.54,11.54,0,0,0,72.93,220a11.57,11.57,0,0,0-23.13-.22A11.38,11.38,0,0,0,61.4,231.5Z"/><path d="M62.06,275a11.57,11.57,0,0,0-11.64,11.41A11.38,11.38,0,0,0,62,298.15a11.54,11.54,0,0,0,11.53-11.5A11.68,11.68,0,0,0,62.06,275Z"/><path d="M61.44,342.93A11.57,11.57,0,0,0,49.8,354.35a11.38,11.38,0,0,0,11.6,11.73,11.54,11.54,0,0,0,11.53-11.5A11.68,11.68,0,0,0,61.44,342.93Z"/></svg>