<svg id="Layer_1" data-name="Layer 1" xmlns="http://www.w3.org/2000/svg" viewBox="0 0 403.36 450.08">
  
  <style type="text/css">
    path{fill:#70b42b;}
  </style>
  
  <g id="_4gl7XC.tif" data-name="4gl7XC.tif"><path d="M93.4,403.74V218.15c8.67-.87,17.18-1.44,25.6-2.62,21.84-3.06,40.19-12.68,54.39-29.77,2.17-2.61,4.39-5.19,6.48-7.86,9.6-12.3,20.17-23,38.16-22.43-1.79-7.62-3.32-14.49-5-21.32Q201,85.76,188.84,37.39c-.66-2.66-1.08-5.38-1.61-8.07-1.34-6.89.5-10.6,7.32-12.27,19-4.62,37.9-9.44,57.06-13.11,49.13-9.41,96.78-.7,143.87,13.08,6.57,1.92,8.76,5.5,7.2,11.94C394.5,62.67,386,96.3,378,130.05c-4.1,17.26-7.42,34.71-11,52.09a29,29,0,0,0-.24,4.11c20.13,3,34.23,13.11,36.45,34.13,1.91,18.12-8.07,30.18-24.66,38,15.75,7,26.25,17.73,24.71,35.31-1.55,17.75-13.64,27-30.51,31.64,13.41,11.09,19.67,24.44,12.3,40.78-7.89,17.51-23.47,22.33-42,22a17.11,17.11,0,0,0,1.61,2.12c10.17,9.24,14.86,20.42,10.84,34C351.35,438,341.12,445.6,327.52,449a32.69,32.69,0,0,1-8.15,1.06c-22.48-.19-45-.14-67.43-.88-24.49-.81-47.85-6.87-70.16-17-18.49-8.43-36.36-18.48-56.38-23.07-8.94-2.05-18.11-3.12-27.18-4.62C96.66,404.21,95.09,404,93.4,403.74ZM221.32,66.26c.45,2.61.78,4.82,1.22,7,6.1,30.53,12.32,61,18.27,91.59,3.13,16.11,2.92,16.15,19.74,19.32a21,21,0,0,0,3.37.39c26.48.63,53,1.28,79.44,1.72,1,0,2.86-1.82,3.09-3,5.24-27.57,10.27-55.17,15.44-82.75,2.13-11.37,4.54-22.69,6.87-34.29-2.55-.65-4.57-1.14-6.57-1.67C347.37,60.65,338.42,51,337,36.74c-.38-3.94-2.08-5.07-5.42-5.85-24.71-5.77-49.34-4.84-74,.3-3.33.69-4.3,2.14-4.66,5.39-1.53,13.83-10.41,24.22-23.44,27.88C227,65.15,224.51,65.57,221.32,66.26Z"/><path d="M77.26,318.27q0,50.7,0,101.41c0,9.76-5.18,14.92-15,14.92q-23.77,0-47.55,0C5.13,434.56,0,429.47,0,420Q0,318.55,0,217.15C0,206.88,4.91,202,15.19,202q23.53,0,47.06,0c9.87,0,15,5,15,14.88Q77.29,267.57,77.26,318.27Z"/><path d="M296.47,93.25c9.15.35,19,2.87,27.26,10,11.57,10,13,24.21,3.76,36.35-15.09,19.88-48.5,20.42-64.29,1-10.52-12.91-8.66-28.64,4.58-38.69C275,96.43,285.15,93.2,296.47,93.25Z"/></g></svg>