<?xml version="1.0" encoding="utf-8"?>
<!-- Generator: Adobe Illustrator 21.0.2, SVG Export Plug-In . SVG Version: 6.00 Build 0)  -->
<svg version="1.1" id="Layer_1" xmlns="http://www.w3.org/2000/svg" xmlns:xlink="http://www.w3.org/1999/xlink" x="0px" y="0px"
	 viewBox="0 0 2438.4 649.3" style="enable-background:new 0 0 2438.4 649.3;" xml:space="preserve">
<style type="text/css">
	.st0{opacity:1;fill:#000;}
	.st1{fill:#70B62B;}
</style>
<path class="st0" d="M95.2,181.9L79.4,427.2H0c0.5-8.1,0.8-16.4,1.4-24.6C3.2,375,5.1,347.5,7,319.9c2.3-33.4,4.5-66.8,6.7-100.2
	c1.8-27.4,3.6-54.8,5.4-82.2c2-30.6,4.1-61.1,6-91.7c0.2-3.1,1.5-3.8,4.4-3.8c28.7,0.1,57.3,0.1,86-0.1c3.8,0,4.3,2.4,5.2,4.8
	c19.4,51,38.8,102,58.2,153c9,23.8,18.1,47.5,27.1,71.3c0.5,1.3,1.2,2.6,2.2,4.8c4.2-10.4,8-19.9,11.7-29.4
	c26.3-66.5,52.6-133,78.9-199.5c1.5-3.7,3.2-5,7.2-4.9c26.3,0.2,52.7,0.1,79,0.1c1.8,0,3.6,0.2,5.6,0.2l25.7,384.9h-79.5L321,181.9
	l-0.8-0.2c-0.7,1.4-1.5,2.7-2,4.2c-26.3,65.4-52.6,130.9-78.8,196.3c-1.6,4-3.3,5.6-7.8,5.5c-16-0.3-32-0.2-48,0
	c-3.4,0-4.9-1-6.2-4.1c-26.1-65.2-52.2-130.3-78.4-195.5c-0.9-2.1-1.8-4.2-2.7-6.4L95.2,181.9z"/>
<path class="st0" d="M901,281.3V42.4h86.5v385.1h-5.4c-22.2,0-44.3-0.1-66.5,0.1c-3.9,0-6.2-1.1-8.4-4.5
	c-49.4-79.3-98.9-158.5-148.5-237.6c-0.9-1.4-1.8-2.8-3.5-5.3v247h-87V42h4.9c24.7,0,49.3,0.1,74-0.1c3.4,0,5.3,1,7.1,4
	c47.7,76.8,95.4,153.6,143.2,230.4C898.4,277.6,899.3,278.9,901,281.3z"/>
<path class="st0" d="M1550.5,271.4l-8.2,11.3c-13.7,18.7-27.4,37.3-40.8,56.2c-1.9,2.8-3,6.1-3.1,9.5c-0.2,24.2-0.1,48.3-0.1,72.5
	v6.3h-86.9c0-1.7,0-3.4,0-5.2c0-124.7,0-249.3-0.1-374c0-4.8,1.2-6.2,6.1-6.1c25,0.2,50,0.1,75,0.1h5.9v180.9l1.1,0.5
	c1-1.3,2.1-2.6,3.1-4c41.9-57.7,83.8-115.4,125.7-173.1c2.3-3.2,4.6-4.4,8.6-4.4c24.8,0.2,49.7,0.1,74.5,0.1h6.4
	c-1.7,2.4-2.7,3.8-3.7,5.3c-34.3,47-68.5,94-102.8,140.9c-3.5,4.8-3.9,8.2-1.2,13.6c27.7,55.5,55.1,111.2,82.6,166.9
	c9.1,18.4,18.1,36.7,27.2,55.1c0.5,1,0.9,2.1,1.6,3.7c-1.9,0.1-3.3,0.2-4.7,0.2c-29,0-58,0-87,0.1c-3.3,0-4.9-0.9-6.4-4
	c-23.2-49.2-46.6-98.3-70-147.4C1552.4,274.7,1551.5,273.3,1550.5,271.4z"/>
<path class="st0" d="M1077.3,427.3V42h5.6c79.3,0,158.7,0,238-0.1c4.4,0,6,1,5.9,5.7c-0.3,19.2-0.1,38.3-0.1,57.5
	c0,1.6-0.1,3.3-0.2,5.5h-162.2v89.9h135.2c0.1,2.2,0.2,3.8,0.3,5.4c0,19.3-0.1,38.7,0.1,58c0.1,4.6-1.5,5.5-5.7,5.5
	c-41.2-0.1-82.3-0.1-123.5-0.1h-6.3v89.5h162.1v68.5H1077.3z"/>
<path class="st0" d="M1989.2,428.8c-21.7,6.3-44.4,8.9-67,7.4c-47.7-3.1-89.6-20.5-124.7-53c-39.7-36.9-61.6-82.7-64.6-136.9
	c-3.2-59.8,16.5-111.5,58.6-153.8c37.5-37.7,83.5-57.4,136.9-58.8c92.9-2.5,174.9,57.8,199.7,146.8c0.9,3.1,0.6,5.2-1.8,7.5
	c-25.5,23.9-51,47.9-76.4,71.9c-0.2,0.2-0.5,0.4-0.8,0.5c0.6-9.9,2-20.1,1.7-30.2c-1.2-54.4-44.4-102.8-98.2-110.7
	c-65.6-9.5-124,33.2-134.5,98.2c-9.7,60.4,32.4,120.6,92.6,131.8c9.1,1.7,18.5,1.4,27.8,2.3c1.8,0.2,4.4,0.9,5.3,2.2
	c15.1,24.3,30,48.8,45,73.2C1989,427.8,1989.2,428.3,1989.2,428.8z"/>
<path class="st1" d="M2438.4,0l-406.1,451.2l-148-241.8c2.7-0.1,4.2-0.3,5.8-0.3c23,0,46,0,69-0.1c3.2-0.2,6.2,1.1,8.2,3.6
	c23.8,28.3,47.8,56.5,71.7,84.7c1.6,1.9,3.3,3.6,5.4,5.8c6.3-5.8,12.2-11.3,18.1-16.9c72.5-68.3,145.1-136.6,217.6-204.9
	c27.7-26,55.3-52.1,83-78.1c1.7-1.6,4.2-3.1,6.4-3.1C2392-0.1,2414.5,0,2438.4,0z"/>
<path class="st0" d="M494.4,42.2h86v385h-86L494.4,42.2L494.4,42.2z"/>
<path class="st0" d="M69.8,620.7c4.4-12.3,8.9-24.7,13.3-37c6.8-18.8,13.6-37.6,20.3-56.4c1-2.9,2.3-4.3,5.7-4.2
	c8.1,0.2,16.2,0.1,24.5,0.1v123.1h-18.8V545.8l-0.6-0.2c-1,2.5-2,5.1-3,7.6c-10.7,29.7-21.5,59.5-32.1,89.3c-1.1,3.2-2.5,4.3-6,4.3
	c-13.6-0.1-13.6,0.1-18.2-13C45,605.5,35.1,577.3,25.3,549c-0.4-1.2-1-2.3-1.9-4.5v101.7H6.1v-123c8.8,0,17.5-0.2,26.1,0.2
	c1.2,0,2.9,2.3,3.5,3.9C46,556.5,56.3,585.7,66.5,615c0.7,1.8,1.3,3.7,2,5.5L69.8,620.7z"/>
<path class="st0" d="M570.5,515.3h19.1V565c0.9-0.7,1.7-1.4,2.5-2.2c17.8-19.3,49.1-13.8,58.7,10.7c6.6,16.8,6.7,35.4,0.3,52.2
	c-9.3,25.2-40.8,31.3-59.6,11.8c-0.6-0.6-1.2-1.1-1.9-1.5c-2.2,3.7-3.4,8.6-6.5,10.2s-8.1,0.4-12.6,0.4V515.3z M589.3,599.8
	c0.9,5.9,1.4,12.1,2.9,18c2.4,9.3,8.8,14.1,18.4,14.7c10.2,0.7,17-2.9,20.7-12.1c5.4-13.1,5.4-27.7,0.1-40.8
	c-3.4-8.8-11-12.6-21.4-11.8c-9.3,0.7-15.8,5.6-18,14.6C590.7,587.9,590.2,593.8,589.3,599.8z"/>
<path class="st0" d="M879.7,515.3h18.8V597c5.7-6.6,10.9-12.8,16.3-18.8c6.8-7.5,13.8-14.9,20.9-22.2c1.1-1.1,2.6-2.6,4-2.6
	c6.8-0.3,13.5-0.1,21.5-0.1l-37.7,40.2l39.9,53.3c-8,0-15.1,0.2-22.1-0.2c-1.4-0.1-2.8-2-3.9-3.4c-9-12.2-18-24.4-27.1-36.9
	c-6.4,4.3-12.8,7.6-11.5,17.2c1,7.5,0.2,15.2,0.2,23.1h-19.3L879.7,515.3L879.7,515.3z"/>
<path class="st0" d="M1475.3,515.2h18.7v81.4c1-0.9,1.7-1.4,2.2-2.1c11.6-12.9,23.2-25.7,34.8-38.6c1.1-1.2,2.6-2.6,4-2.6
	c6.8-0.3,13.5-0.1,21.5-0.1l-37.7,40.2l40,53.2c-8.1,0-15.3,0.2-22.5-0.2c-1.2,0-2.4-2-3.4-3.3c-8.1-11-16.2-22-24.2-33
	c-1-1.3-2-2.6-3.3-4.2c-3.3,2.4-6.4,5-9.4,7.8c-1.1,1.1-1.4,3.3-1.4,5c-0.1,9.1-0.1,18.3-0.1,27.7h-19.2V515.2z"/>
<path class="st0" d="M1939.3,606c-3.5,2.8-6.9,5.2-9.8,8.1c-1.1,1.1-1.2,3.3-1.2,5.1c-0.1,9-0.1,17.9-0.1,27.2h-19.1v-131h19.1
	c0,13.7,0,27.1,0,40.6s0,26.8,0,40.1c8.5-9.4,17.1-18.9,25.8-28.5c1.3-1.5,3.1-2.7,4-4.4c7.5-12.9,19.6-10.3,32.2-9.7l-37.4,39.9
	l40,53.2c-8.1,0-15.3,0.2-22.5-0.2c-1.2,0-2.5-2-3.4-3.3c-8-10.8-16-21.8-24-32.6C1941.8,609.2,1940.7,607.8,1939.3,606z"/>
<path class="st0" d="M1054.5,600.7c-1,6-1.4,12.3-3.1,18.1c-6,20.8-22.3,31-46.6,29.8c-19.5-1-34.6-14.7-38.6-35.1
	c-2-10.2-1.8-20.6,0.8-30.7c4.4-17.3,16.3-28.2,34.1-30.5c17.1-2.2,32.6,0.9,43.6,15.8C1051.9,577.7,1054.1,588.8,1054.5,600.7z
	 M1034.6,599.5c-1.7-6.7-2.7-14-5.5-20.6c-3.9-9-12.2-11.7-21.5-11.2c-8.7,0.4-15.5,4.2-18.7,12.6c-5,12.7-5,26.8,0,39.5
	c3.6,9.1,11,12.8,20.6,12.8s17.1-3.8,20.4-12.9C1032.2,613.5,1033,606.8,1034.6,599.5L1034.6,599.5z"/>
<path class="st0" d="M1650,600.5c-1,6.2-1.5,12.6-3.2,18.6c-5,17.9-19.6,29-38.2,29.5c-31.2,0.8-49.9-19.3-48.1-51.8
	c0.7-12.3,3.2-24,12.3-32.9c14.2-14,31.6-15.1,49.2-9.4c17.2,5.6,24.7,19.7,26.9,36.9c0.4,3,0.4,6,0.6,9L1650,600.5z M1629.9,599.7
	c-1.4-6.2-2.1-12.9-4.4-19.1c-3.3-8.9-10.6-12.8-20-12.9s-17.2,3-20.9,12.2c-5.4,12.9-5.4,27.5,0.1,40.3
	c3.8,9.1,11.5,12.8,22.4,12.3c9.2-0.5,16.2-5.4,19-14.3C1627.9,612.4,1628.6,606.2,1629.9,599.7L1629.9,599.7z"/>
<path class="st0" d="M281.8,604.6h-61.6c-1.7,15.2,8.7,27.5,23.4,28.3c9.7,0.6,19.3-0.9,28.4-4.4c1.5-0.6,3-1.1,5.5-2
	c0,5.2,0.2,9.7-0.1,14.3c-0.1,1-1.7,2.4-2.9,2.8c-16.3,6.1-32.8,7.3-49.3,1.4c-10-3.4-17.9-11.1-21.6-21
	c-6.9-17.3-6.4-34.6,1.6-51.4c7.9-16.6,26.1-24.1,46.8-20.2c16.8,3.2,28.2,16.1,29.7,34.2C282.2,592.4,281.8,598.1,281.8,604.6z
	 M262.4,590.1c0.1-9.1-2-16.7-9.9-20.9c-7-4-15.6-3.7-22.3,0.8c-7.2,4.6-9.3,11.9-10.2,20.2L262.4,590.1L262.4,590.1z"/>
<path class="st0" d="M1298.9,604.6h-61.6c-1.9,15.3,8.8,27.9,23.8,28.3c5.7,0.1,11.3-0.3,16.9-1.2c5.3-0.9,10.5-2.9,16.6-4.7
	c0,4.8,0.2,9.3-0.1,13.9c-0.1,1-1.6,2.4-2.8,2.9c-16.4,6.2-33.2,7.4-49.8,1.3c-10.1-3.6-18-11.6-21.6-21.7c-6.4-17-5.9-34,2-50.5
	c8-16.7,26.3-24.3,47.3-20.2c16.7,3.3,27.9,16.4,29.3,34.6C1299.2,592.7,1298.9,598.2,1298.9,604.6z M1237.5,589.8h41.9
	c0.4-14.4-7.3-23.1-20-23.2C1246.4,566.6,1237.3,576.2,1237.5,589.8L1237.5,589.8z"/>
<path class="st0" d="M545.3,626.3c0,5.2,0.2,9.4-0.1,13.5c-0.3,1.7-1.4,3.1-2.9,3.8c-16.4,6.2-33.1,7.4-49.8,1.2
	c-9.6-3.4-17.2-10.9-20.9-20.3c-7-17.2-6.6-34.6,1.3-51.4c7.8-16.6,25.4-24.3,45.6-20.8c17.4,3,28.7,14.6,30.9,33.1
	c0.8,6,0.1,12.2,0.1,19.1h-61.4c-1.7,15.6,8.8,27.8,23.8,28.5C523.2,633.5,534,631.3,545.3,626.3z M529.8,590
	c1.7-12.4-6.1-22.6-17.6-23.3c-14.2-0.9-24.2,8.7-23.9,23.3H529.8z"/>
<path class="st0" d="M1883.9,626.8c0,2.2,0,4,0,5.9c0,10.9,0,11-10.4,13.6c-10.8,2.8-22.1,3.2-33.2,1.3c-17.3-3-29.8-15.1-33.2-32.3
	c-3-15-2.4-29.9,5.1-43.7c8.6-15.9,26.5-23,47-18.8c16.1,3.2,27,15.7,28.8,33.4c0.6,5.9,0.1,11.9,0.1,18.5h-61.5
	c-1.5,15.7,9.1,28,24,28.3c5.7,0.1,11.3-0.3,16.9-1.2C1872.8,630.6,1877.9,628.6,1883.9,626.8z M1869,590c-0.1-8.3-1.9-15.6-9-20.2
	s-15-4.5-22.3-0.5c-7.9,4.3-10.4,11.9-11.3,20.7H1869z"/>
<path class="st0" d="M748,626.4c0.1,2.4,0.2,3.9,0.2,5.4c0.1,12.1,0.2,12.8-12,14.7c-9.9,1.5-20.3,2.3-30.2,1.1
	c-19.6-2.4-31.8-15.4-35.1-34.9c-2.1-11.4-1.3-23,2.4-34c6.5-19,23.2-28.8,45.1-26.7c19,1.8,31.4,14,33.9,34
	c0.7,5.9,0.1,11.9,0.1,18.5H691c-1.7,15.6,8.8,27.8,23.8,28.5C726.2,633.5,737.6,631.2,748,626.4z M691.3,590h41.5
	c1.6-12.8-6.4-22.8-18.2-23.3C700.6,566.1,690.6,576,691.3,590z"/>
<path class="st0" d="M384,566.3c9-12,20.5-15,33.4-14.6c18.4,0.6,29.6,10.7,30.3,29c0.7,20.5,0.3,41,0.4,61.5c0,1.3-0.2,2.6-0.3,4.2
	h-19.7v-5.2c0-17.2,0-34.3,0-51.5c0-3.2-0.3-6.3-1-9.4c-1.8-7.6-7-11.9-14.8-12.5c-15.3-1.2-25.1,6.5-26.2,22.1
	c-1,13.4-0.6,27-0.9,40.4c-0.1,5.3,0,10.6,0,16.2h-19.5v-93.2c4.5,0,8.8-0.2,13,0.2c1.1,0.1,2.5,1.8,2.9,3.1
	C382.6,559.7,383.4,563,384,566.3z"/>
<path class="st0" d="M1318.7,553.2c4.5,0,8.6-0.2,12.7,0.1c1.2,0.1,2.7,1.7,3.1,2.9c1,3.3,1.8,6.6,2.5,9.9
	c8.9-11.8,20.5-14.9,33.6-14.5c18.1,0.7,29.2,10.7,30,28.7c0.8,17.6,0.3,35.3,0.4,53c0,4.2,0,8.3,0,12.9h-20v-5.4
	c0-17.3,0-34.7,0-52c0-13-5.1-20-15.1-21.2c-13.3-1.6-23,4.4-25.9,16.5c-1.2,5.2-1.8,10.5-1.8,15.8c-0.2,15.3-0.1,30.6-0.1,46.3
	h-19.4L1318.7,553.2z"/>
<path class="st0" d="M855.7,646.5H836c-0.1-2.1-0.3-4-0.3-5.9c0-16.2,0-32.3,0-48.5c0-1.2,0-2.3,0-3.5c-0.2-12.9-5.3-19.9-15.4-20.9
	c-13.4-1.4-22.8,4.5-25.7,16.7c-1.1,4.7-1.6,9.5-1.7,14.3c-0.2,14-0.1,28-0.1,42c0,1.8,0,3.6,0,5.6h-19.5v-93.2
	c4.3,0,8.6-0.2,12.8,0.1c1,0.1,2.4,1.5,2.8,2.6c1,2.9,1.6,6,2.3,9c0.6,0,1.1,0.1,1.2-0.1c11.5-14,26.6-15.3,42.7-11.5
	c12.1,2.9,18.3,11.8,19.6,23.8c0.9,7.8,0.8,15.6,0.9,23.4C855.8,615.7,855.7,630.9,855.7,646.5z"/>
<path class="st0" d="M1135.1,558.1l-6.3,14.3c-7.2-1.8-13.9-4.1-20.7-5.1c-4.9-0.6-9.9-0.3-14.8,1c-7.3,2-8.7,10.1-2.5,14.6
	c4,2.9,8.7,4.8,13.2,6.9c6.5,3,13.2,5.5,19.6,8.8c9.3,4.9,13.4,13,12.9,23.5c-0.6,10.9-5.8,18.8-16,22.7
	c-16.6,6.2-33.3,5.1-49.9-0.4c-1.2-0.4-2.8-1.8-2.9-2.9c-0.3-4.9-0.1-9.8-0.1-14.3c9,2.1,17.4,4.5,26,5.9c4.8,0.7,9.9-0.1,14.8-0.8
	c4.4-0.7,7.6-3.4,8.4-8.1s-1.4-8.3-5.3-10.4c-5.4-2.9-11.1-5.4-16.6-8s-10.9-4.9-16.1-7.9c-8.7-5-12-13-11.3-22.8
	s6.1-16.2,14.8-19.5C1099.9,548.8,1117.3,551.1,1135.1,558.1z"/>
<path class="st0" d="M1207.1,631c0,2.4,0,4.3,0,6.3c0,8.8,0,9.2-9,10.3c-5.9,0.9-11.9,0.9-17.8,0.2c-12.2-1.9-19.4-9.5-20.1-21.9
	c-0.8-16.4-0.6-32.9-0.8-49.4c0-2.6,0-5.3,0-8.4l-11.7-0.5c-1.9-7.3-1.9-8.3,4.4-11s10.3-6.8,11.5-13.7c0.1-0.5,0.3-1,0.5-1.4
	c3.4-10.4,3.7-10.6,15.3-8.5v20.1h20.2c6.7,0,6.7,0,6.7,6.8c0,2.5,0,4.9,0,8c-7.6,0-14.6,0.2-21.5-0.1c-4.2-0.2-5.4,1.3-5.3,5.4
	c0.2,14.8,0.1,29.6,0.1,44.4c0,11.2,4.8,15.7,16.1,15.1C1199.3,632.5,1202.9,631.7,1207.1,631z"/>
<path class="st0" d="M1998.5,567.7c-1.5-5.7-0.7-9.8,5.1-11.4c7.5-2.1,9.7-8.2,11.6-14.7c3.2-10.5,3.8-10.7,15.3-8.4V553h26.6v15
	h-26.4v5.5c0,14.8,0,29.7,0,44.5c0,10.8,4.6,15.2,15.4,14.8c3.8-0.2,7.6-1,12.1-1.6c0,4.2,0.2,8.4-0.1,12.6c-0.1,1-1.8,2.5-2.9,2.7
	c-7.6,0.8-15.3,2.4-22.7,1.7c-13.1-1.3-20.6-9.7-21.2-23c-0.8-16.8-0.5-33.6-0.6-50.5c0-2,0-3.9,0-6.4L1998.5,567.7z"/>
<path class="st0" d="M323.1,533.2V553h26.5v14.9c-7,0-13.8,0.2-20.5-0.1c-4.4-0.2-6.1,0.9-6,5.7c0.3,14.7,0.1,29.3,0.1,44
	c0,11.2,4.8,15.8,16,15.2c3.8-0.2,7.5-1.1,11.5-1.6c0.1,1.2,0.2,2.3,0.2,3.5c0.2,12,0.2,12.1-11.7,13.6c-4.5,0.6-9,0.6-13.5,0.2
	c-12.8-1.5-20.9-8.6-21.7-21.5c-1.1-17.2-0.7-34.6-0.9-51.9c0-2.1,0-4.2,0-6.9h-11.8c-2.1-7.4-2-8.9,4.4-11.3
	c7.6-2.9,10.1-8.7,12.2-15.6C311,531.2,311.9,530.9,323.1,533.2z"/>
<path class="st0" d="M1797.5,551.6l-1.9,18.8c-3.3-0.2-6.3-0.7-9.4-0.6c-15.3,0.4-26.1,11.4-26.3,26.9c-0.2,14.6,0,29.3,0,43.9
	c0,1.8,0,3.6,0,5.7h-19.5v-93.2c4.3,0,8.4-0.2,12.5,0.1c1.1,0.1,2.6,1.8,2.9,3c1,4.3,1.6,8.7,2.5,14.3c6-9,12.4-16.1,22.2-18
	C1785.9,551.6,1791.4,552,1797.5,551.6z"/>
<path class="st0" d="M1669.4,553.2c4.1-0.2,8.2-0.1,12.2,0.2c1.2,0.1,2.8,2,3.1,3.3c1,4.1,1.5,8.4,2.5,14c9.4-15,21.6-21.7,38.9-18
	l-1.7,17.8c-3.2-0.4-6.4-0.6-9.6-0.6c-15.4,0.5-26,11.4-26.1,27.1c-0.1,14.5,0,29,0,43.5v5.9h-19.4L1669.4,553.2z"/>
<path class="st0" d="M2067.8,545.2l-7-14.5c10.3-6,22-9.2,34-9.4c4.5-0.2,9,0.1,13.4,0.8c11.7,2.2,21,8,24.4,20.1
	c3.6,12.7,0.6,24.1-9,33.3c-3.6,3.4-7.5,6.6-11.4,9.7c-7.5,5.9-13.6,12.4-12,23.5h-16.6c-0.6-9.8,0.4-19.1,7.8-26.3
	c5-4.9,10.9-8.9,15.5-14c3.3-3.7,6.3-8.3,7.6-13c2.1-8.1-2.7-14.9-10.9-16.8c-7.8-1.8-15.6-1-23.1,1.7
	C2076.5,541.7,2072.6,543.3,2067.8,545.2z"/>
<path class="st0" d="M160.4,553.5h19.1v92.9h-19.1V553.5z"/>
<path class="st0" d="M2105,636.5c0,8.2-4.6,12.9-12.5,12.9s-12.4-4.7-12.4-13c0-8.6,4-12.7,12.5-12.6
	C2100.8,623.8,2105,628.1,2105,636.5z"/>
<path class="st0" d="M169.6,538.9c-7.3-0.1-10.9-3.9-10.7-11.2c0.2-6.9,4-10.5,11.1-10.5s11,3.8,10.9,11.1S177.1,539,169.6,538.9z"
	/>
</svg>
