<svg id="Layer_1" data-name="Layer 1" xmlns="http://www.w3.org/2000/svg" viewBox="0 0 240.12 50">
<style type="text/css">
	.cls-1{fill:gray;}
</style>
<path class="cls-1" d="M.2.09,0,49.48l77.86-.2L77.77.18ZM46.32,37.74,36.74,29l-4.95,0,.07,8.87-19.36,0h0l-.13-27,41.71.18.9.27,1.35.54,1,.54L58.6,13l1.17.9.9,1.44.72,1.35.36,1.44.09,1.72-.09,2-.63,2L60,25.1l-.9,1.44-1.44.9-.9.36-1.17.27L53,28.26l13.18,9.39Z"/><path class="cls-1" d="M82.09,0,82,49.28l77.48.25L159.2.25Zm63,17.78-14.47-.12V38l-21,.12h0l-.12-20.35H95V11.52l50.26-.12Z"/><polygon class="cls-1" points="42.86 18.89 42.04 17.96 41.57 17.61 31.96 17.59 31.99 23.69 31.99 23.69 40.97 23.69 41.81 23.57 42.39 22.99 43.21 21.82 43.56 20.77 43.44 19.71 42.86 18.89"/><path class="cls-1" d="M162.28.42l.17,49.24h0l77.32.35L240.12.59Zm65.36,38.14H176.15V11.34l23.23-.17V31.8l28.43-.35Z"/></svg>