<svg id="Layer_1" data-name="Layer 1" xmlns="http://www.w3.org/2000/svg" viewBox="0 0 191.51 50">
<style type="text/css">
	.cls-1{fill:gray;}
</style>
<path class="cls-1" d="M0,1.07H12.54l8.64,33.46h.09L30.35,1.09h13l9.07,33.5h.09c.15-.55.3-1.09.44-1.64Q57,17.27,61,1.57c.1-.4.27-.51.67-.51,3.77,0,7.53,0,11.3,0h.54L60.11,49h-.48q-6.78,0-13.55,0a.52.52,0,0,1-.61-.46Q41.23,33.94,37,19.37a1.23,1.23,0,0,0-.26-.52L27.93,48.94H13.42c-.35-1.23-.7-2.47-1-3.71L.18,1.69A4,4,0,0,0,0,1.26Z"/><path class="cls-1" d="M119.85,29.48H86.79a.71.71,0,0,0,0,.2c.77,3.44,2.36,6.32,5.57,8.08a12.39,12.39,0,0,0,5.61,1.42,17.49,17.49,0,0,0,11.84-4l.52-.42L117.77,43c-.83.67-1.61,1.35-2.44,2a25.46,25.46,0,0,1-11.87,4.71,36.66,36.66,0,0,1-9.59.11,22.32,22.32,0,0,1-19.33-17,29.2,29.2,0,0,1,1.62-19.87C79.37,6,84.86,1.9,92.31.49A24.5,24.5,0,0,1,106,1.59a20.68,20.68,0,0,1,11.63,11.17,29.78,29.78,0,0,1,2.45,14C120,27.62,119.92,28.52,119.85,29.48Zm-12.54-9.11a13.14,13.14,0,0,0-3.12-6.59A9.07,9.07,0,0,0,97.44,11,9.8,9.8,0,0,0,90,13.62a12.61,12.61,0,0,0-3.28,6.74Z"/><path class="cls-1" d="M165.59,48.93v-37H151.82V1.1h39.69V11.9H177.77v37Z"/><path class="cls-1" d="M138.27,38.13h20v10.8H126.16V1.1h12.11Z"/></svg>