<svg id="Layer_1" data-name="Layer 1" xmlns="http://www.w3.org/2000/svg" viewBox="0 0 175.14 50">
<style type="text/css">
	.cls-1{fill:gray;}
</style>
<path class="cls-1" d="M0,45.36a13.45,13.45,0,0,1,3.43-2.48.85.85,0,0,0,.34-.47Q6.05,35.81,8.32,29.2q3.73-10.85,7.46-21.7a.61.61,0,0,1,.7-.5c3.09,0,6.19,0,9.28,0h.5l1.39,4Q33,26.67,38.42,42.31a1.6,1.6,0,0,0,.58.77c.8.63,1.57,1.3,2.32,2a1,1,0,0,1,.25.65c0,1.19,0,2.39,0,3.61H23.35V48.21c0-.79,0-1.58,0-2.36a.88.88,0,0,1,.41-.84L27,42.71l.09.09a.77.77,0,0,0,0-.16c-.39-1.16-.78-2.32-1.16-3.48a.39.39,0,0,0-.43-.32l-12.08,0a.52.52,0,0,0-.38.29c-.36,1.11-.68,2.23-1,3.34-.08.25,0,.34.21.48,1,.71,2.06,1.43,3.06,2.17a.84.84,0,0,1,.26.59c0,1.18,0,2.36,0,3.6-.2,0-.38,0-.56,0H.56c-.19,0-.38,0-.56,0ZM14.83,32.94h9.26l-4.76-15h-.11Z"/><path class="cls-1" d="M175.14,17.86c-.12.77-.21,1.55-.35,2.32A16.84,16.84,0,1,1,154.44.46c.81-.19,1.64-.26,2.46-.38a2.68,2.68,0,0,0,.29-.08h2.19l1.76.26A16.83,16.83,0,0,1,174.8,13.57c.14.75.23,1.52.34,2.28Zm-16.86,13.4a14.4,14.4,0,1,0-14.4-14.4A14.43,14.43,0,0,0,158.28,31.26Z"/><path class="cls-1" d="M92,49.32c0-.6,0-1.18,0-1.76s0-1.2,0-1.79a.64.64,0,0,1,.34-.64A18.72,18.72,0,0,1,97,42.72c.09,0,.17-.17.21-.27a.89.89,0,0,0,0-.3q0-13.9,0-27.8c0-.4-.14-.54-.49-.72-1.53-.78-3-1.62-4.53-2.46a.42.42,0,0,1-.17-.31c0-1.21,0-2.42,0-3.68l.45,0,19.92-.25A34.19,34.19,0,0,1,122,8c6.29,1.74,10.1,5.85,11.52,12.17a29.4,29.4,0,0,1,.2,12.68c-1.57,7.35-6,12.3-12.94,15A30.65,30.65,0,0,1,109,49.58c-5.51-.1-11-.16-16.54-.24Zm15.7-36.26c0,.16,0,.27,0,.37q0,14.27,0,28.54c0,.34.13.45.43.52a18.27,18.27,0,0,0,5.95.44,8.4,8.4,0,0,0,6-3.16,12.25,12.25,0,0,0,2.22-4.28,26.34,26.34,0,0,0,.92-9.09A21.91,21.91,0,0,0,122,19.84a10,10,0,0,0-4.59-5.63,11,11,0,0,0-3.95-1.2A26.81,26.81,0,0,0,107.71,13.06Z"/><path class="cls-1" d="M46.93,7.18l.39,0Q56,7,64.6,6.84a42.94,42.94,0,0,1,6.69.25,16,16,0,0,1,7.23,2.55,9.36,9.36,0,0,1,4,7,11.47,11.47,0,0,1-1.16,6.75,11.58,11.58,0,0,1-6.52,5.4l-.41.16s0,0-.07.09a5.19,5.19,0,0,1,3.67,3,31.77,31.77,0,0,1,2,5.57c.43,1.34.92,2.67,1.39,4a3.84,3.84,0,0,0,.27.55c.7,1.29,1.62,2.23,3.29,2,.1.86.19,1.7.29,2.53.06.57.11,1.13.19,1.7a.45.45,0,0,1-.35.58,16.72,16.72,0,0,1-4.27.89,21.62,21.62,0,0,1-3.49.05,5.92,5.92,0,0,1-4.21-2.56,16.78,16.78,0,0,1-2.37-4.75c-.69-2-1.31-4-2-6A14.61,14.61,0,0,0,67.37,34a3.4,3.4,0,0,0-3.25-1.69c-.49,0-1,0-1.52,0v.52c0,3.17,0,6.33,0,9.5a.68.68,0,0,0,.37.64c1.05.73,2.07,1.51,3.09,2.28a.47.47,0,0,1,.16.33c0,1.24,0,2.48,0,3.76H46.93c0-1.27,0-2.52,0-3.77a.5.5,0,0,1,.23-.33,18.4,18.4,0,0,1,4.69-2.41c.11,0,.19-.2.25-.33a.64.64,0,0,0,0-.26q0-14,0-27.93a.58.58,0,0,0-.46-.68,23.72,23.72,0,0,1-4.55-2.42.39.39,0,0,1-.18-.27C46.92,9.68,46.93,8.44,46.93,7.18Zm15.7,5.94v13.2c1.41,0,2.81,0,4.17-.17a5.09,5.09,0,0,0,4.49-3.81,9.17,9.17,0,0,0,.06-5.22,5.33,5.33,0,0,0-3-3.61A9.47,9.47,0,0,0,62.63,13.12Z"/><path class="cls-1" d="M148.1,17.07V12.9L165,6.83c0,.17,0,.29,0,.41q0,8,0,16a.47.47,0,0,1-.36.54L154.07,27.6l-.37.11V15.05Z"/></svg>