<svg id="Layer_1" data-name="Layer 1" xmlns="http://www.w3.org/2000/svg" viewBox="0 0 598.82 68.59"><defs><style>.cls-1{fill:#324b81;}</style></defs><title>Artboard 3@1x</title><path class="cls-1" d="M341.11,40c1-1.41,1.91-2.62,2.75-3.88,3.92-5.9,3.85-12.13.81-18.21-1.55-3.09-4-5.72-6.11-8.55-.36-.49-.78-.93-1.37-1.63,3.73-.19,7.13-.42,10.53-.51,9.19-.25,18.39-.42,27.58-.67,10.23-.27,20.46-.6,30.69-.9l34.29-1,30.45-.9,34.29-1,30.45-.9q17.26-.51,34.53-1c8.55-.26,17.1-.56,25.65-.83.95,0,1.89,0,3.18,0-.5,5.93-1.59,11.53-2.39,17.18S594.78,28.57,594,34.26s-1.65,11.39-2.5,17.07-1.72,11.33-2.61,17.22H586q-111.24,0-222.47,0a4.19,4.19,0,0,1-3.93-2C354,58.4,348.23,50.31,342.53,42.2,342.08,41.55,341.66,40.88,341.11,40Zm162,20.39c-1.08-.2-2-.34-3-.55-2.68-.61-3.52-1.49-3.84-4.15a43.79,43.79,0,0,1-.39-5c0-8.07,0-16.15,0-24.23,0-.29.06-.59.14-1.21.55.6.93,1,1.26,1.38,3.82,4.62,7.65,9.24,11.44,13.88,5.82,7.12,11.63,14.24,17.38,21.42a2.82,2.82,0,0,0,3.83,1c0-.88,0-1.75,0-2.62,0-10.15,0-20.31.1-30.46,0-3,.22-6.07.46-9.1.19-2.45,1.3-3.54,3.71-4,.77-.15,1.54-.31,2.34-.48V14.1a6.44,6.44,0,0,0-1.29-.3c-5,0-9.92-.06-14.87,0-1.68,0-1.75.24-1.51,2.54.94.15,1.94.33,2.94.48,2.5.38,3.74,1.56,4,4,.24,2.3.42,4.62.48,6.93.11,4,.11,8,.13,12,0,3.57,0,7.14,0,11.22-.87-.95-1.41-1.49-1.9-2.08-4.22-5.12-8.42-10.25-12.66-15.36-5-6-10-12-15-18.08a4.15,4.15,0,0,0-3.69-1.73c-2.15.1-4.32,0-6.48,0-.78,0-1.56.13-2.28.19-.4,2.36-.36,2.54,1.53,2.77,2.3.28,4.27,1.19,5.27,3.25a11.54,11.54,0,0,1,.94,4.61q.21,7.55.1,15.11-.1,7.91-.46,15.81c-.12,2.71-1.2,3.81-3.84,4.46-.83.2-1.68.35-2.47.52-.21,2.21-.2,2.28,1.65,2.29q7.2,0,14.39,0C503.36,62.76,503.39,62.66,503.09,60.44Zm73.42,2.24A99,99,0,0,0,579,50.88c-2.22-.59-2.21-.59-3,1q-.88,1.84-1.81,3.64a7.29,7.29,0,0,1-6.53,4.19c-3,.11-5.91.06-8.87,0a7.48,7.48,0,0,1-1.63-.36,3.06,3.06,0,0,1-2.41-2.4,13.3,13.3,0,0,1-.37-2.83c0-4.32,0-8.64,0-13a15.34,15.34,0,0,1,.22-1.83c3.69,0,7.2-.06,10.71,0a3.07,3.07,0,0,1,2.95,2.41,14.45,14.45,0,0,1,.43,1.62c.18,1,.64,1.61,1.76,1.49s1.12-.94,1.13-1.76q.07-4.8.13-9.59a7,7,0,0,0-.08-2.14,1.88,1.88,0,0,0-1.17-1.17,2.13,2.13,0,0,0-1.58.71,3.6,3.6,0,0,0-.44,1.59,3.49,3.49,0,0,1-3.25,3,95.68,95.68,0,0,1-10.31.13c-.2-.44-.32-.58-.33-.73,0-5.44,0-10.87-.08-16.31a1.57,1.57,0,0,1,1.81-1.75c3.83.11,7.66.23,11.48.5a3.49,3.49,0,0,1,3,2.2c.63,1.46,1.21,2.95,1.72,4.45.29.85.63,1.46,1.66,1.3a1.5,1.5,0,0,0,1.41-1.84c-.18-2.71-.34-5.42-.5-8.14a1.5,1.5,0,0,0-1.68-1.59l-1.2,0q-14,0-28.07,0c-.86,0-1.72.12-2.72.19v2.4l2.84.46c1.91.3,2.65.95,3.06,2.83a10.2,10.2,0,0,1,.22,2.14q.06,16.19.1,32.38c0,.64,0,1.28-.06,1.92-.22,2.35-1,3.25-3.32,3.71-1,.2-2.05.31-3.08.49a3.88,3.88,0,0,0-.8.39l.23,2ZM479.19,50.31c-1,2-1.91,3.75-2.87,5.49a6.53,6.53,0,0,1-5.5,3.74,94.14,94.14,0,0,1-10.29.06c-2.43-.15-3.26-1.24-3.68-3.69A18.15,18.15,0,0,1,456.6,53c0-3.84,0-7.68,0-11.51,0-.7.1-1.39.15-2a3.76,3.76,0,0,1,.85-.26c2.48,0,5,0,7.43,0,4.66,0,5.32.79,6.21,4.9a3.26,3.26,0,0,0,.47.75l2.09-.19c0-4.88.36-9.56,0-14.18-2.34-.45-2.34-.45-2.91,1.44-.92,3.09-1.66,3.68-4.92,3.76-2,0-4,0-6,0-.93,0-1.86-.07-2.8-.11a8.18,8.18,0,0,1-.29-1.39c0-5-.05-10.07,0-15.11,0-1.84.43-2.24,2.34-2.21,3.19,0,6.38.25,9.57.33a5,5,0,0,1,4.88,3.54c.56,1.48,1.09,3,1.65,4.51,1.16.13,2.4.28,2.39-1.22,0-3.32-.32-6.64-.51-10.09-1.1-.08-1.88-.19-2.67-.2q-14.15,0-28.31,0a14.3,14.3,0,0,0-1.68.07c-.74.09-1.25.56-1.08,1.29a3,3,0,0,0,1,1.4c.26.22.76.18,1.15.23,3.39.45,3.89,1,4.1,4.36,0,.4,0,.8,0,1.2q.13,15.59.25,31.17c0,1-.16,2.07-.26,3.1a3.3,3.3,0,0,1-3,3.19l-3.89.68c-.21,2.24-.2,2.31,1.65,2.31,10.87,0,21.75,0,32.62,0,1.45,0,2-.63,2.22-1.9.64-3.21,1.35-6.41,2-9.61,0-.13-.09-.3-.17-.55Zm-71.75,8.92c1.59-2.35,2.9-4.33,4.26-6.28Q424.29,35,436.9,17c.52-.75,1.55-1.58.74-2.51-.46-.53-1.55-.52-2.36-.74a.92.92,0,0,0-.24,0q-15.36,0-30.72,0c-.85,0-1.7.15-2.64.24-.34,3.55-.67,6.89-1,10.22-.09.9-.16,1.82,1.07,2s1.73-.45,2-1.52.64-1.81,1-2.71c1.14-3.27,3.38-4.83,6.9-4.77,5,.08,10.08,0,15.12,0,.37,0,.74.08,1.49.17-.63.94-1.09,1.66-1.58,2.35q-13.8,19.77-27.58,39.55c-.55.8-1.7,1.51-1.14,2.7s1.82.77,2.8.77q16.92,0,33.84,0c.78,0,1.56-.08,2.57-.14l2.64-12.81-2.37-.49c-.94,1.92-1.76,3.74-2.69,5.49a8.1,8.1,0,0,1-6.69,4.45A109,109,0,0,1,407.44,59.23ZM363.13,49.5c.64,3.61,1.27,7.13,1.87,10.65.18,1,1,1.37,1.79,1.73a23.67,23.67,0,0,0,12.66,1.79A16.76,16.76,0,0,0,388.18,60a13.18,13.18,0,0,0,1.24-19.52,26.3,26.3,0,0,0-6.8-4.83c-2.17-1.19-4.42-2.27-6.48-3.62a13.83,13.83,0,0,1-3.67-3.37A8,8,0,0,1,377.1,16a8.42,8.42,0,0,1,9.51,4.79c.74,1.48,1.27,3.07,2,4.78l2.53-.38c-.41-3.32-.8-6.39-1.16-9.47a1.77,1.77,0,0,0-1.49-1.61c-4.19-1.22-8.4-2-12.74-.89-5.44,1.34-9.45,4.35-10.81,10s.56,10.08,4.94,13.58a36.86,36.86,0,0,0,4.4,2.88c2.2,1.29,4.53,2.39,6.66,3.78a16.16,16.16,0,0,1,3.93,3.45c4.08,5.25,1,13.07-5.38,13.83-3.95.47-7.37-.7-9.75-3.9a46.25,46.25,0,0,1-3.41-6.27c-.28-.54-.5-1.12-.8-1.78Z"/><path class="cls-1" d="M206.39,61.74V60.17c.2-.14.32-.28.45-.3,1-.17,2.06-.29,3.08-.49,2.07-.41,2.9-1.28,3.14-3.34a27.57,27.57,0,0,0,.13-3.11q0-15.34,0-30.69c0-.8,0-1.6-.07-2.4-.2-2.81-1-3.67-3.72-4.08-.7-.1-1.42-.16-2.28-.25l-.22-1.82a2.72,2.72,0,0,1,.78-.3c8.94.11,17.9,0,26.83.44a21.3,21.3,0,0,1,14.15,5.73c5.31,5.08,7,11.49,6.44,18.58C254,52,244.66,58.6,234.74,60.75a45.94,45.94,0,0,1-8.54,1c-6.15.16-12.31.06-18.46.06C207.35,61.83,207,61.78,206.39,61.74Zm13.3-25.32c0,4.24,0,8.47,0,12.71,0,1.6,0,3.2.09,4.79.25,2.8,1.73,4.55,4.41,4.92,9.42,1.28,18.13-2.24,21.93-12.19a28.13,28.13,0,0,0,1.32-14.41c-.71-4.71-2.63-8.92-6.49-11.92-5.62-4.37-12.13-5-18.9-4-1.61.23-2.13,1-2.29,2.62-.08.79-.07,1.6-.07,2.4Q219.68,28.87,219.68,36.43Z"/><path class="cls-1" d="M315.79,40.71c.14,5.4.19,10.42.43,15.44.09,2,1.06,2.8,3,3.19,1,.2,2,.31,3.15.48l.12,1.87H303V59.83c1.17-.17,2.27-.28,3.35-.49A3.34,3.34,0,0,0,309.49,56a24.83,24.83,0,0,0,.11-2.88q0-15.48,0-31c0-4.59,0-6.15-5.61-6.54a2.19,2.19,0,0,1-.55-.25,4.32,4.32,0,0,1-.17-.81,7.15,7.15,0,0,1,.13-1.07c.74,0,1.44-.1,2.14-.11,5.6,0,11.2-.08,16.8,0a35.15,35.15,0,0,1,7.12.81c10.77,2.48,11.07,14.62,6,19.9a22.22,22.22,0,0,1-2.89,2.51c-1,.71-2,1.25-3.11,1.9a1.72,1.72,0,0,0,.07.66,108.78,108.78,0,0,0,11.54,17.06,12.82,12.82,0,0,0,5.8,4.22v1.83c-4.88.39-9.35-.24-12.7-4.11a58.64,58.64,0,0,1-4.5-6.21c-1.63-2.47-3.22-5-4.63-7.57a6.53,6.53,0,0,0-6.46-3.68C317.83,40.73,317,40.71,315.79,40.71Zm.12-2.27c2.85-.21,5.4-.24,7.89-.66a10,10,0,0,0,3.83-1.8c5.37-3.8,4.93-13.26,1.39-16.78a9.35,9.35,0,0,0-3.74-2.44,19.91,19.91,0,0,0-6.1-.69c-2.66.1-3.12.69-3.21,3.42-.11,3,0,6.07-.05,9.1S315.91,34.79,315.91,38.44Z"/><path class="cls-1" d="M65.83,40.95c0,1.91,0,3.73,0,5.56,0,3.11,0,6.24.24,9.34.17,2.41,1.06,3.16,3.44,3.56.86.14,1.73.26,2.7.41l.17,1.58c-.6.58-16.29.68-19.45.19V59.83C54,59.68,55,59.55,56,59.38c2.28-.4,3.16-1.33,3.4-3.65.1-1,.11-1.92.11-2.87q0-15.23,0-30.46,0-1.08-.05-2.16c-.15-3.16-1-4.06-4.12-4.49-.62-.09-1.25-.15-1.95-.23a6.06,6.06,0,0,1-.21-1,6.31,6.31,0,0,1,.11-1,5.08,5.08,0,0,1,.95-.19c6.4,0,12.79-.06,19.19,0a26.23,26.23,0,0,1,5.92.78,12,12,0,0,1,6,19.89,29.51,29.51,0,0,1-4.29,3.42,22.14,22.14,0,0,1-2,1.19c1.26,2.08,2.38,4.09,3.67,6,2.32,3.44,4.65,6.89,7.14,10.21,1.82,2.43,3.93,4.63,7,5.63l-.14,1.73c-4.35.36-8.45-.08-11.79-3.2a20.75,20.75,0,0,1-3.07-3.66,104.12,104.12,0,0,1-6.24-9.94C73.59,41.39,70.48,40.12,65.83,40.95Zm.36-2.8a22.11,22.11,0,0,0,8.38-.52,8.55,8.55,0,0,0,2.34-1.16c5.22-3.58,6.34-12.57,2-17.21A11.72,11.72,0,0,0,75,16.68a11.42,11.42,0,0,0-6.58-.58c-1.86.33-2.49.76-2.51,2.6-.07,6.38,0,12.75,0,19.13C66,37.89,66,38,66.19,38.15Z"/><path class="cls-1" d="M192,50.08a18,18,0,0,0,.16-1.81c-.05-8-.1-16-.2-24,0-1.51-.26-3-.41-4.53A4,4,0,0,0,188.1,16c-1.16-.24-2.34-.38-3.65-.58V13.48h17.36v2c-.73.1-1.36.17-2,.28-2.78.51-3.88,1.62-4.12,4.45s-.41,5.74-.42,8.62c0,10.4,0,20.79,0,31.19,0,.71,0,1.42,0,2.09-2.21.66-2.22.67-3.68-1.13L163.15,26c-.5-.61-1-1.21-1.75-2.08a10.43,10.43,0,0,0-.27,1.54c0,8.24,0,16.47.09,24.71a42.53,42.53,0,0,0,.39,5c.34,2.65,1.44,3.75,4.1,4.24.86.16,1.72.28,2.74.44v1.88H151.11V59.89c.85-.17,1.62-.31,2.39-.48,2.5-.53,3.68-1.64,3.9-4.17.29-3.34.47-6.7.5-10.05.07-7.12.05-14.23,0-21.35,0-5.45-1.79-7.4-7.24-8.22a4.79,4.79,0,0,1-.63-.21l-.19-1.7a2.81,2.81,0,0,1,.78-.31c3,0,5.92,0,8.87-.07,1.39-.05,2,.85,2.68,1.69l23,27.65,6.3,7.54Z"/><path class="cls-1" d="M29.49,41.41v-2H48.22v1.85a6,6,0,0,1-.76.28c-3.53.74-3.86,1.1-3.85,4.56,0,4.63.07,9.25.11,14.25-2.27.51-4.81,1.12-7.36,1.63-6.6,1.31-13.17,1.49-19.66-.68C4.38,57.22-1,46.4.15,35,1.51,21.53,11.44,14.75,22,12.84c7-1.27,13.84-.26,20.88,1.65L44,26l-2,.39c-.45-1.32-.8-2.46-1.22-3.57a11.46,11.46,0,0,0-9.19-7.53C20.06,13.17,10.51,19.66,8.22,31.22a27.47,27.47,0,0,0,2.6,18.63A19.22,19.22,0,0,0,32.21,59.91c3.82-.83,5-2.18,5-6.1,0-2.56.07-5.12-.07-7.68-.17-3-.86-3.71-3.84-4.26C32.14,41.66,30.94,41.58,29.49,41.41Z"/><path class="cls-1" d="M261.12,15.52l-.09-2h33.1l.64,10.68-2,.14c-.72-1.85-1.34-3.57-2.06-5.25a4,4,0,0,0-3-2.54c-4.51-.82-9-.52-13.46-.41-.69,2.13-.87,15.68-.3,19.2,3.82-.07,7.7.37,11.56-.37,2-.39,2.6-2,2.86-3.7.21-1.36.85-1.8,2.13-1.44.45,1.7.54,11.23.12,14.08H288.8c-.23-.85-.45-1.61-.64-2.38a3.65,3.65,0,0,0-3.52-3.07c-1.83-.14-3.67-.12-5.51-.15s-3.47,0-5.25,0a8.16,8.16,0,0,0-.2,1.16c0,4.48-.11,9,0,13.44.16,5.19,1.28,6.28,6.5,6.4,2.63.06,5.27-.14,7.9-.3a6.31,6.31,0,0,0,5.27-3.3c1.08-1.85,2-3.77,3.14-5.81l2,.24L296,61.7H260.13V59.86c.87-.14,1.71-.31,2.56-.42,3.57-.48,4.48-1.46,4.6-5.14.06-1.76,0-3.52,0-5.28q0-12.72,0-25.44c0-1.12,0-2.24-.06-3.36-.17-3.17-1.06-4.11-4.14-4.5C262.5,15.65,261.88,15.6,261.12,15.52Z"/><path class="cls-1" d="M136.75,24.22a9.85,9.85,0,0,1,1.09-.17c.71,0,1.42,0,2.33,0,0,.58,0,1.1,0,1.61-.05,4.32,0,8.64-.2,13a64.86,64.86,0,0,1-.87,9.29c-1.8,9.57-8.25,14.9-18,15a24.89,24.89,0,0,1-5.94-.65,15.08,15.08,0,0,1-11.57-11A31.92,31.92,0,0,1,102.5,42c0-6.16,0-12.32,0-18.48a36.59,36.59,0,0,0-.24-4.07c-.27-2.31-1-3-3.23-3.53-.86-.18-1.74-.24-2.86-.39l-.17-2h19l.13,2c-.91.09-1.69.13-2.46.25-2.55.37-3.45,1.31-3.75,3.89a14.53,14.53,0,0,0-.07,1.68c0,6.8,0,13.6,0,20.4a23.8,23.8,0,0,0,1.81,9.12,13.26,13.26,0,0,0,18.46,6.6,11.75,11.75,0,0,0,5.14-5.52,25.41,25.41,0,0,0,2.4-10.68C136.83,35.64,136.75,30,136.75,24.22Z"/><path class="cls-1" d="M130.47,14.49a3.53,3.53,0,0,1-3.54,3.69,3.62,3.62,0,0,1-3.58-3.45,3.73,3.73,0,0,1,3.47-3.83A3.56,3.56,0,0,1,130.47,14.49Z"/><path class="cls-1" d="M139.1,10.9a3.55,3.55,0,0,1,3.44,3.79,3.47,3.47,0,0,1-3.48,3.48,3.58,3.58,0,0,1-3.61-3.64A3.67,3.67,0,0,1,139.1,10.9Z"/></svg>