<svg id="Layer_1" data-name="Layer 1" xmlns="http://www.w3.org/2000/svg" viewBox="0 0 3625.52 494.74"><title>Artboard 2@1x</title><path d="M1934.7,318.5c.87-2.34,1.78-4.64,2.59-7q35.84-102.94,71.77-205.85c1.76-5,2.32-9.73.32-14.49-3.08-7.33-5.66-15.08-10-21.63-11.42-17.26-33.89-20.86-50.86-8.93-8.65,6.08-11.77,14.92-8.54,24.18s12.37,15.8,22.08,14.56c6.32-.81,12.42-3.4,18.55-5.41,2.24-.73,4.27-2.1,7.17-3.58a31.63,31.63,0,0,1-35.07,15.32c-21.21-5-36.39-25.4-34.85-47.18,2-29,22.89-51.55,52.79-57,35.23-6.45,65.21,8.5,81.53,40.37,6.24,12.19,8.88,25.4,12,38.52q28,119.24,55.92,238.49a65.91,65.91,0,0,0,2.33,7.9c4.14,11.15,11.27,16.25,23.14,16.76,1.2.05,2.39.16,4.59.3l-27.86,56.56c-11.93-6-23.38-11.41-34.57-17.36-9.6-5.11-13.51-14.34-15.93-24.3-3.06-12.62-6-25.27-9-37.9q-7.56-32.08-15.11-64.17c-.46-1.93-1.11-3.8-1.75-6h-75.67L1947,318.8c20.18,3.94,38.15,10.89,52.95,25.81l13.69-13.08,4.37,4.58-56.08,60c-2.36-1.87-4.42-3.57-6.54-5.18-15.15-11.42-31.81-16.46-50.67-11.69-7.71,1.95-14.18,6.2-19.71,11.79-11.3,11.44-13,26.8-4.5,40.5,6.47,10.46,16.32,16.71,27.37,21.23a114.13,114.13,0,0,0,40.91,8.24c15.54.36,30.91-.63,46.06-4.61a92.4,92.4,0,0,0,49.1-31.23,85,85,0,0,1,11.17-11.84,12.54,12.54,0,0,1-.59,2.74c-15.83,34.06-40.24,58.19-78.08,66-23.15,4.8-45.75,2.52-67.23-7.86-31.53-15.24-51.13-47.7-43.91-88.43,3.94-22.23,14.46-40.85,32.9-54.43a60.7,60.7,0,0,1,32.52-12.22C1932,319.08,1933.17,318.77,1934.7,318.5Zm107.1-86.75-25.37-110.67-1.53.07-37.73,110.59Z"/><path d="M2746.57,353.55c5.85-6.8,6.61-15.88,6.56-25.28q-.34-64.87-.47-129.73c0-12.31-4-17.66-15.78-21.27-2.13-.66-4.27-1.28-6.4-2-.19-.06-.31-.36-.82-1l40.25-47.92c12,5.58,19.85,14.48,25.55,25.63s8.13,23,9.65,37.12c6.75-7.67,12-14.41,17.48-21s10.8-13.13,16.2-19.68c5.54-6.72,11.09-13.42,17.2-20.82,17.09,14.76,30.86,30.61,33.31,55.42,16-19,30.64-37.42,46.23-56,13.75,14.45,28.5,27,46,35.65,0,.76.29,1.44.07,1.65-6.66,6.62-8.56,14.64-8.46,23.9.44,43.24.47,86.49.67,129.73a86.4,86.4,0,0,0,.41,9c1.19,10.9,7,17.23,17.61,19.46,2.67.56,5.36,1,8.42,1.54-6.53,8-13.28,15.37-18.91,23.5-5.5,7.94-9.86,16.66-14.91,25.36-10.28-5.92-20.47-12.15-29.12-20.57s-12.66-18.75-12.7-31c-.18-47.49-.62-95-1-142.48,0-2,.1-4-.07-6-.61-7.33-5.92-13.73-12.48-15.2-6.85-1.53-15.32,2-18.42,8.55a29.59,29.59,0,0,0-3,12.16c-.08,40,.17,80,.27,120,0,11.06,4.35,20.31,12.32,28.69-15.59,13.71-28.13,29.37-37.09,48.31l-31.92-50.27c6.07-6.58,6.83-15.08,6.74-24.06-.36-39-.44-78-.69-117a46.05,46.05,0,0,0-.84-9.67c-1.5-6.74-5.94-11-12.64-12.31-6.54-1.32-11.78,1.35-15.67,6.57a22.74,22.74,0,0,0-4.66,14q.24,59.62.42,119.23c0,9.8,4.25,17.77,10.9,25.52-14.06,13.86-25.9,29.13-34.59,46.42Z"/><path d="M2428.53,456a28.82,28.82,0,0,0,13.81,11.43c13.84,5.76,28.06,7.52,42.23,1.49,12.08-5.14,18.62-14.59,19.48-27.85.71-10.91-1.8-20.8-8.85-29.37-1.9-2.31-3.59-4.8-5.41-7.18a40.75,40.75,0,0,1-8.52-25.08c-.08-8.93,0-17.86-.79-27.18-7.58,7.31-14.08,15.32-20.73,23.17l-20.24,23.92c-13.21-8.65-26.23-16.93-35.65-29.61a41.48,41.48,0,0,1-8.37-25.15q-.29-72-.69-143.92c-.09-15.3,6.42-26.36,20.29-33,3.83-1.82,7.61-3.79,11.55-5.35,23.71-9.42,46.93-19.79,67.28-34.6l45.37,35.82c0-.72.2-.08,0,.19-6,7.08-7.5,15.3-7.4,24.43q.89,83.2,1.14,166.4c0,11.76,3.13,22.12,10.11,31.45,1.35,1.8,2.52,3.72,3.84,5.54,8.72,12.05,9.27,24.91,3.82,38.37a71.41,71.41,0,0,1-24.85,31.29c-25.62,18.59-54,22.61-84,13.93-18.45-5.33-29.37-18.09-32.26-37.4-3.23-21.55,16.51-35.06,35.56-28.92,11,3.55,17.44,14.08,16.28,25.75-1.19,12-9.19,20.06-21.37,21.32C2436.72,456.32,2433.27,456,2428.53,456Zm25-296.51c-2,3.93-4.42,7.23-5.23,10.89a84.83,84.83,0,0,0-2,17.77c-.12,32.72,0,65.44.11,98.15,0,13.24-.12,26.48.15,39.71a47.45,47.45,0,0,0,2,13.23c2.36,7.43,8.41,10.62,17.25,10,8-.57,12.47-4.21,13.85-12.16a87.77,87.77,0,0,0,1.14-14.89c0-35-.08-69.93-.15-104.9,0-9,.1-18-.17-27-.07-2.29-.77-5.17-2.27-6.71C2470.63,175.77,2462.62,168.27,2453.57,159.51Z"/><path d="M167,102q-6.54,7.18-13.08,14.35c-19.49,21.35-12.5,55.37,4.81,68.73,4.35,3.35,8.7,6.72,13.17,9.9,2.19,1.56,4.67,2.73,7.53,4.37.82-3.89,1.4-7.22,2.24-10.49a53,53,0,0,1,14.12-25.17,39.54,39.54,0,0,1,29.16-11.6c14.39.13,26.36,12.43,27.61,27.51,1.29,15.42-10.43,27.88-23.58,30.16C214.07,212.39,192,198,201,176.18c.53-1.29.95-2.63,2-5.45-11.45,7.3-16.5,16.35-16.35,28.25a13.39,13.39,0,0,0,5.8,11.41c10.05,7.47,19.25,15.95,26.75,26.09,9.78,13.23,15.17,27.87,15.3,44.55.14,16.46-5.41,30.44-17,41.81-6.58,6.45-13.88,12.19-21.09,18-5.07,4.05-10.53,7.61-15.81,11.4-14.65,10.55-28.83,21.54-36.23,40.29-1.39-2.41-2.21-3.78-3-5.18-1.32-2.41-2.53-4.88-3.92-7.25-14.21-24.2-34.14-33.58-61.77-29.09-25.27,4.1-47,24.07-52.08,47.91s7.56,47.94,30.16,56.51A101.79,101.79,0,0,0,77,460.94c23.36,2.95,46.42,1.15,68.73-6.8,21.08-7.51,38.1-20.6,51.53-38.45,1.35-1.79,2.73-3.56,4.12-5.32.13-.17.46-.18,1.37-.51a28.56,28.56,0,0,1-1.06,4.85c-16,38.07-43.22,62.47-84.75,68.94-20.65,3.22-41,1.28-60.1-7.71-26.22-12.35-40.66-34-46-61.86C2.27,369.4,25.74,316.67,85,305.25c26.28-5.06,50.78.12,71.34,18.54,7,6.31,13.79,13,21.24,20a47.86,47.86,0,0,0,2.41-5.42c7.14-23.91.91-44.52-16.3-61.82-6.82-6.85-14.84-12.56-22.58-18.44-5.56-4.22-11.62-7.79-17.37-11.77-24.74-17.16-38.51-53.8-19.35-86.46,14.27-24.31,33.94-43,58.13-57.15a38.86,38.86,0,0,1,3.89-1.75Z"/><path d="M1068.27,356.62c7.68-5.18,8.44-13.33,8.39-21.78-.29-45.49-.71-91-.81-136.46,0-11.92-5.31-19.91-16.88-24.86a187.4,187.4,0,0,0,39.17-42.45c14.64,12.31,24.84,26.29,27.14,44.91.85,6.92.78,14,.82,21q.39,62.23.57,124.47a29.93,29.93,0,0,0,5.62,18.25c6.74,9.24,17.74,10.18,26,2.18a24.92,24.92,0,0,0,7.6-18.19c.1-8,0-16,0-24,0-33-.34-66,0-99,.11-10.4-1.76-19.35-11.32-26.24,15.74-12.29,28.51-26.43,37.83-44.7,3.25,5.55,5.77,10.56,9,15.1a114.79,114.79,0,0,0,11.36,13.88c4,4.1,8.61,7.55,13.07,11.38,0,.26.25.91,0,1.17-7,8.3-9,18-8.89,28.63.32,40.49.36,81,.52,121.47,0,2.75.05,5.5.21,8.24.54,9.21,5,16,12.84,20.74,1.49.89,3.05,1.65,5.57,3l-33.68,46.73c-20.23-13.95-37.27-29-35.88-57.39-22.14,17.14-39.17,37.69-57.16,57.8Z"/><path d="M691.55,351.55,657.48,398.1A188.1,188.1,0,0,0,620.35,353c1.29-1.07,2.26-2,3.35-2.76,4.94-3.43,6.73-8.55,7.48-14.12a66.55,66.55,0,0,0,.36-9q-.1-57.72-.25-115.43c0-17.47-3.12-21.71-19.58-27.16-.71-.23-1.4-.49-2.92-1l38.74-50.2c15.27,4.34,25.68,20,34.28,51.8,5.41-3,8.45-8.2,12.43-12.35,4.32-4.5,8.39-9.25,12.57-13.9q6-6.69,12-13.37c4-4.43,8-8.83,11.77-12.94l43.44,42.16c-4.63,7.22-5,15.91-4.95,24.67q.15,62.21.33,124.43a78.39,78.39,0,0,0,.32,8.23c1.12,10.33,7.16,16.85,17.33,18.87,1.2.24,2.41.38,4.49.69-7.08,7.75-14,14.8-20.27,22.35s-12.16,15.76-18.6,24.2c-19.29-13-34.1-28.14-33.88-53.58.37-44.47.16-88.95,0-133.42a48.93,48.93,0,0,0-1.84-14c-3.62-11.84-19.83-15.86-28.62-6.48-4.8,5.12-7.82,10.68-7.78,18,.26,40.73.31,81.45.47,122.18C681.11,339.67,682.5,347.88,691.55,351.55Z"/><path d="M3371.66,349.55l-39.38,46.36c-7.18-17-17.65-31.79-30.11-46.13,10-7.6,9-18.29,8.95-28.85-.22-40.48-.26-81-.37-121.46,0-13.59-4.09-19.26-17-23.83-2.1-.74-4.24-1.39-7.26-2.38l33.91-45.19c12.72,4.28,22.28,12.12,29.65,22.89,7.24,10.57,10.21,22.63,11.58,37.12,17.21-18.68,33-36.37,49.58-54.43,12,14.31,25.5,25.54,42.13,33.36-7.15,8.91-8.45,18.8-8.36,29.34.38,43.23.43,86.47.59,129.7.06,16.5,2.23,19.29,18.06,23.23.68.17,1.32.5,2.73,1.05l-31.88,46.22c-15.8-7.81-27.24-19-33.64-35-3.48-8.73-4.36-17.89-4.38-27.21-.06-43.48-.25-87-.16-130.45,0-7.15-2-12.74-8.35-16.35-5.45-3.12-11.16-3.28-16.33.23-6.92,4.7-11.42,11.19-11.43,19.94,0,40.24,0,80.47,0,120.71a23.17,23.17,0,0,0,7.41,17.37C3368.94,347.14,3370.44,348.44,3371.66,349.55Z"/><path d="M515.08,350.21c-15.14,15.38-26.51,32-37.62,49.73-17.67-10.07-34.25-20.59-43.81-38.89a34.12,34.12,0,0,1-3.81-15c-.27-44-.19-87.95,0-131.92a59.43,59.43,0,0,1,2.07-15.48c2.75-9.92,9.11-17.64,18.62-21.28,27.88-10.66,52.4-26.74,75.71-45a11.83,11.83,0,0,1,2.11-.87L572,172.35c-1.34,1.77-2.32,3.15-3.39,4.45-4,4.84-5.58,10.24-5.52,16.61.36,41.23.8,82.46.45,123.68-.14,16.15,5.6,27.52,20.68,33.79a12.77,12.77,0,0,1,2,1.31c-6,7-12.44,13.46-17.73,20.79s-9.31,15.31-14.4,23.86C533.21,388.9,520.83,373.38,515.08,350.21Zm-21.64-184c-7.07,3-11.22,7.61-13.11,13.81a43.84,43.84,0,0,0-1.78,12.49q-.19,64.06-.07,128.12a56.64,56.64,0,0,0,.2,6,25.64,25.64,0,0,0,7.32,16c8.69,8.59,21.9,5.84,26.09-5.63a34.92,34.92,0,0,0,1.79-11.73c.07-42.7-.07-85.41,0-128.12,0-6.59-1.78-12.46-6.13-17.2C503.23,175.07,498.15,170.7,493.45,166.23Z"/><path d="M966.12,494.48c-2.42.12-4.12.27-5.83.26-1.2,0-2.39-.25-4.52-.49V161.19l-14.6-.81v-24h14.56V76.93C999.42,72.83,1025,46.37,1042,8.43c2.25,2.9,4,5.26,5.88,7.54a59.37,59.37,0,0,0,4,4.46c12.19,12.19,25.09,12.44,37.54.67a43.92,43.92,0,0,0,4.13-5.25l1.4.91a23.28,23.28,0,0,1-.65,4.64c-2.8,8-5.48,16.06-8.73,23.88a59.59,59.59,0,0,1-6.83,11.59c-12.62,17.59-29.91,22.76-50.07,14.75-6-2.38-11.57-5.75-17.32-8.66-1.72,4.64-2.17,62.75-.35,73.27h23.78v24.72h-25.42c0,4,0,6.92,0,9.87q.08,102.32.17,204.64c0,2.25,0,4.5,0,6.75-.12,11.15-3,14.49-14.21,16.26-3.7.59-7.4,1.17-11.12,1.62-7.25.89-12.19,5.07-14.12,11.74a82.35,82.35,0,0,0-3.51,20.5c-.47,18.48-.15,37-.16,55.47C966.44,489.73,966.26,491.7,966.12,494.48Z"/><path d="M885.86,71.18c1.84-2,3.22-3.26,4.41-4.71,6.67-8.1,13.24-16.29,20-24.35,5.75-6.89,9.4-7.18,15.13-.44,11.1,13.06,12.24,28,6.82,43.66-3.51,10.11-10,18.36-18,25.42-8.24,7.28-16.56,14.47-24.77,21.78a58.67,58.67,0,0,0-4.61,5.16l.71,1.76,21.52.71v22.53H885c0,3.41,0,6.06,0,8.7,0,50.73.22,101.46-.23,152.19-.12,13.47,5.9,21.63,17.39,26.91,2,.94,4.15,1.71,7,2.86-6.38,4.52-12.7,8.39-18.28,13.13a144.34,144.34,0,0,0-16.38,16.4c-4.81,5.66-8.75,12.07-13.26,18.42-5.88-8.82-11.21-18-17.75-26.28s-14.46-15.8-22.21-24.11c9.32-5.41,10.35-14.77,10.34-24.93-.06-51,.14-102,.25-152.94,0-3,0-5.93,0-9.51l-13.12-1.13V140.28l11.37-.64c2-7.59,1.51-68.53-.69-85.47,8.44-.79,15.11,4.11,23,7.17,5.2-16.54,13-31.05,29.3-38.91,6.2-3,12.64-5.38,21.34-4.15C885.63,32.56,883.08,50.56,885.86,71.18ZM885.41,130c9-8.27,15.23-16.28,14.49-27.6-.62-9.48-6.35-15.94-14.49-21.68Z"/><path d="M2286,51.9l51.16-29c.14,4,.32,6.83.32,9.67q0,145.1,0,290.19,0,1.87,0,3.75c0,17.15,1.82,19.66,18.25,25.34a15.39,15.39,0,0,1,2.28,1.37c-18.52,11.49-32.44,26.88-43,47.05-3.46-4.82-6.36-8.94-9.36-13-3.12-4.22-6.26-8.42-9.53-12.53s-6.63-8.14-10.06-12.11-7-7.79-10.81-12.06c1.27-1.4,2.34-2.66,3.49-3.85a25.7,25.7,0,0,0,7.14-16.89c.15-2.49.08-5,.09-7.5q0-130.48,0-260.95Z"/><path d="M2173.54,51.83l51.77-24.53V324.57q0,.75,0,1.5c0,18,1.54,20.32,18.86,27.1-18.14,12-32.24,27-42.15,46.11l-43.47-50.88c1-.6,2.39-1.48,3.82-2.24,7.74-4.13,11.36-10.05,11.32-19.32-.27-76.47-.15-152.93-.15-229.4Z"/><path d="M2695.38,340.89c-16.9,16.84-34.54,33.13-42.65,57l-4.73-2c-7.1-3.06-14.17-6.18-21.3-9.16-5.07-2.12-10.29-3.87-15.31-6.09-16.75-7.4-25.08-20.68-26.47-38.62-.27-3.48-.27-7-.27-10.49q0-61.1,0-122.21c0-4.25.1-8.5.36-12.74.74-11.9,6.09-21,16.83-26.5a156.76,156.76,0,0,1,19.77-8.91c22.16-7.64,42.46-18.72,61.61-32.05a28.94,28.94,0,0,1,2.66-1.47,16,16,0,0,1,1.28,1.95c5.72,12.47,11.21,25,17.17,37.39,4.44,9.2,6.9,18.62,6.33,28.91-.68,12.34-5.07,22.66-14.4,31a366.35,366.35,0,0,1-48,35.8c-4.19,2.67-9.85,4.6-12,8.45s-.86,9.71-.89,14.69c-.07,9.75-.13,19.49,0,29.24.26,19,11.92,30.73,30.86,31.38a45.26,45.26,0,0,0,23.82-5.3,27.37,27.37,0,0,1,4.34-1.52Zm-59.56-76.66a40,40,0,0,0,4.54-1.67,47.19,47.19,0,0,0,24.75-48.15c-2.5-19.07-10.93-35.63-21.45-51.33-.36-.53-1.09-.82-2.44-1.79-1.36,3.53-3.14,6.6-3.66,9.86a144.89,144.89,0,0,0-2.13,20.8c-.27,22-.14,44-.12,65.94C2635.3,259.8,2635.6,261.7,2635.81,264.23Z"/><path d="M1575.3,266c0,18.09-.93,35.88.22,53.54,1.7,26.1,26.54,39.2,49.72,27a49.14,49.14,0,0,0,9.28-6.28c2.8-2.43,4.84-1.79,7.64,1.08-20.05,16.28-38.79,33.71-51.92,57.09-14.88-7.12-30.59-11.48-44.11-20.7s-20.47-22.21-21.92-38.31c-.34-3.73-.41-7.49-.42-11.24q-.18-54.37-.24-108.74a98.14,98.14,0,0,1,1.29-17.91c2.7-14.45,11.39-24.85,24-31.9,9.58-5.37,19.29-10.66,29.42-14.85,14.86-6.15,29.55-12.28,41.34-25.07,9.29,13.64,18.73,26.23,26.77,39.65,9.12,15.22,9.77,39-7.76,55.74-13.16,12.56-28.13,22.35-44,31C1588.48,259.56,1582.16,262.56,1575.3,266Zm5.3-102.86c-1.57,4-3.07,6.55-3.58,9.31a85.37,85.37,0,0,0-1.74,14.85c-.21,23-.15,46-.14,69a23.74,23.74,0,0,0,.73,4.09c25.37-10.7,36.28-34.27,28.1-59.64-3.42-10.61-9.23-19.9-15.94-28.68C1586,169.39,1583.68,166.86,1580.6,163.18Z"/><path d="M1419.28,165.15l-10.82-.66v-25l10.39-1c.35-9.71.16-19.35.21-29s0-19.45,0-29.68l51-18.52v77.53h26.79v25.64h-26.78c0,3.55,0,6.22,0,8.9q.11,78,.23,155.94c0,12.14,3.31,17,14.69,21.44,3.47,1.35,7.11,2.28,11.2,3.58-8.37,6.61-16.82,12.57-24.41,19.46s-14.16,14.59-21.11,21.85L1412.45,357c7.21-5.85,7.36-14.47,7.31-23.37q-.39-80.22-.48-160.43C1419.27,170.73,1419.28,168.27,1419.28,165.15Z"/><path d="M3141.84,338.61c-2.17,6-7.44,8.12-11.4,11.63-4.11,3.65-8.52,7-12.61,10.63-3.91,3.5-7.74,7.11-11.31,10.94a164,164,0,0,0-10.66,12.57c-3.32,4.36-6.22,9-9.59,14-1.44-.72-2.93-1.41-4.38-2.18-7.71-4.11-15.17-8.8-23.17-12.25-19.28-8.31-27.65-22-27.17-43.48,1-44.72.72-89.49.06-134.22-.22-14.92,5.42-24.54,18.25-31.39,23.16-12.37,45.58-26,66.59-41.82,2.75-2.07,5.53-4.1,8.74-6.49,2.52,5.44,4.48,10.26,6.93,14.81,4.15,7.69,8.64,15.2,13,22.8,13.77,24.25,9.17,50.64-12.07,68.85a288.37,288.37,0,0,1-45.76,32.53c-5,2.81-7.06,5.83-6.87,11.7.43,13.48,0,27,0,40.49-.08,16.73,9.52,27.27,26.14,28.84,10.74,1,20.89-.71,30.37-6.06A34,34,0,0,1,3141.84,338.61Zm-60-173.67c-2.23,15.47-2.11,91.32.11,96.89,20-10.42,29.82-28.43,26.14-49.88-3.13-18.21-12.69-33.36-24.91-46.92C3083.05,164.89,3082.71,165,3081.83,164.93Z"/><path d="M3598.87,125.91c7.11,15.68,14,30.9,20.91,46.08,10.85,23.68,6.49,43.56-14.65,58.77-15.78,11.36-32.69,21.15-49.11,31.61-2.08,1.32-4.29,2.45-6.64,3.78,0,13.44,0,26.67,0,39.9,0,4.5,0,9-.13,13.49-.56,19.67,11.83,32.39,34.37,30.41,10.74-.94,19.85-6.35,28.84-11.86,1.9-1.17,3.48-3.79,6.63-2.31.41,3.13-2.33,3.64-3.9,4.8-10.43,7.74-21.15,15.09-31.39,23.06a149.59,149.59,0,0,0-29.31,30.91c-.72,1-1.55,1.9-2.95,3.59-12.91-9.53-27.68-15.92-39.67-26.58a30.84,30.84,0,0,1-10.76-23.85q-.14-69.35-.2-138.7c0-13,5.6-23.31,15.84-30.76,7.24-5.26,15.22-9.51,23-14,13.58-7.91,27.46-15.34,40.79-23.66C3587.19,136.4,3592.94,130.71,3598.87,125.91Zm-49.19,133.47c14.63-4,27.44-22.89,29.27-42.74,1.91-20.72-10.27-47.82-24.95-54.6-1,3.38-2.41,6.63-2.88,10a144.52,144.52,0,0,0-1.65,18.61c-.21,21.21-.11,42.42-.1,63.63C3549.36,256,3549.57,257.63,3549.68,259.38Z"/><path d="M432.21,134.15c-4.62,15-10.49,27.52-19.63,38.36a44.92,44.92,0,0,1-17.17,13,31.48,31.48,0,0,1-24.8-.12c-4.12-1.69-8.06-3.81-12.8-6.09a51.29,51.29,0,0,0-.55,5.17c0,47.22,0,94.44-.12,141.66,0,9.69,4.49,16.06,12.79,20.2,2.43,1.21,5,2.13,7.7,3.26l-39.14,47.48-43.8-43.83c9.05-5.95,10.29-15.23,10.25-25.34-.15-44.47,0-88.94,0-133.41a57.73,57.73,0,0,0-.13-6.74c-1.11-9.42-8-14.46-17.44-12.74-2.41.44-4.78,1.11-9,2.11l33.52-47.57c20.73,4.75,32.86,18.86,42.36,37.66l27.62-35.84C402.59,152.82,415.33,147.88,432.21,134.15Z"/><path d="M111.44,120.39c-3.54,8.29-9.78,13.91-17.09,18.3-17,10.18-34.8,14.35-54.46,8.44C10,138.16-3.49,108.07.77,83.35c7-40.95,42.39-79,93-79.08,25.93-.06,50.36,6.61,74.27,15.78,12.82,4.92,25.52,10.13,38.34,15,4.89,1.87,9.91,3.42,15,4.82,16.9,4.67,32.72,2,47.19-7.76,5.57-3.75,10.62-8.28,15.88-12.49,1.51-1.21,2.93-2.53,5.48-4.73-.22,3.18,0,5.11-.52,6.81C279.13,54.86,258.68,79.08,226.68,93c-14.07,6.1-28.83,6.26-43.34,2.15-11.49-3.25-22.71-7.57-33.84-11.92-18.58-7.27-36.77-15.61-55.57-22.24A81.21,81.21,0,0,0,41.6,60.2,65.09,65.09,0,0,0,23,69.49C10.92,78.35,6.28,91.05,8,105.75c1.38,11.9,8.29,20.09,19.14,24.93,13.42,6,27.54,6.49,41.9,5.2a82.21,82.21,0,0,0,37.88-13C108.35,122,109.92,121.22,111.44,120.39Z"/><path d="M1665.19,172.74l36.11-44.26c7.83,3.17,14,9.32,19.05,16.32s9.31,14.59,14.36,22.64c9.21-12.07,15.65-25.45,22.41-38.77,21.37,20.45,26.44,20.63,45.58,1.34a32.58,32.58,0,0,1,0,5.09c-2,11.59-4.88,22.94-10,33.61-3.51,7.28-7.85,14-14.39,18.9-12.18,9.12-22.75,8.8-33.34-.18-2.81-2.38-5.42-5-8.92-8.25-.19,3.18-.44,5.53-.44,7.88q0,65.2,0,130.4c0,17.63,5.49,25.4,22,31.28,1.4.5,2.85.88,5.42,1.65-5.88,4.65-11.45,8.61-16.47,13.16a144.64,144.64,0,0,0-14.57,15c-4.42,5.36-8.05,11.37-12,17.1l-42.63-43.07c6.57-4.85,7.92-12,7.93-19.77q.05-66.7.24-133.4A61.33,61.33,0,0,0,1685,192c-1.27-10.41-6.38-15.93-16.78-18.3C1667.09,173.39,1666,173,1665.19,172.74Z"/><path d="M1271.63,355.77c9.86-4.88,12.71-13.61,12.6-24.56-.43-41.49-.38-83-.59-124.49-.07-14.17-4.81-20.73-17.78-25.28-.7-.25-1.39-.51-2.08-.77,1.56-5.2,21.78-34.6,33.23-48.37,11.65,2.93,20.27,12.16,34.69,37.57l20.64-38c5.47,4.85,9.29,11.52,17.34,12.16,7.8.62,13-4.15,19.05-9.31a53.37,53.37,0,0,1,.53,5.62c-.27,11.55-1.71,22.95-5.84,33.8a54.62,54.62,0,0,1-6.11,11.95c-8,11.32-21,14.14-33.07,7.34-3.42-1.92-6.47-4.48-10.38-7.22a44,44,0,0,0-.67,5.22q-.11,68.62-.11,137.24c0,14.56,7.72,22.52,22.36,23.87l4.48.42c-7.89,7.59-15.57,14.22-22.31,21.7s-12.7,16-18.87,23.83Z"/><path d="M3182.75,351a47.86,47.86,0,0,0,4.38-3.68,22.61,22.61,0,0,0,6.44-16.27q-.08-69.36,0-138.73c0-9.4-4.31-15.61-12.59-19.41-2-.9-4-1.68-6.71-2.81,15.52-12.41,29.91-25.07,41.91-41,6.1,7.3,11.64,14.28,17.56,20.92s12,12.69,18.23,19.25a3.2,3.2,0,0,1-.7,1.4c-7.06,6.36-9.16,14.51-9.06,23.68.24,20.49.26,41,.36,61.49.1,23,.44,46,.17,69-.12,10.23,1.1,19.5,10.25,25.76l-37.1,45Z"/><path d="M3189.13,50.43a28.21,28.21,0,0,1,56.42-.35c.24,15.5-13,28.79-28.48,28.66A28.38,28.38,0,0,1,3189.13,50.43Z"/></svg>